<svg width="18" height="18" viewBox="0 0 18 18" fill="none" xmlns="http://www.w3.org/2000/svg">
<path d="M5.83594 14.8242C6.30114 14.8242 6.67773 15.2008 6.67773 15.666C6.67773 16.1312 6.30114 16.5078 5.83594 16.5078C5.37612 16.5078 5.00293 16.1366 5.00293 15.666C5.00293 15.1954 5.37612 14.8242 5.83594 14.8242ZM14.1689 14.8242C14.6341 14.8242 15.0107 15.2008 15.0107 15.666C15.0107 16.1312 14.6341 16.5078 14.1689 16.5078C13.7093 16.5076 13.3359 16.1365 13.3359 15.666C13.3359 15.1955 13.7093 14.8244 14.1689 14.8242ZM3.03516 1.49121L3.60352 2.68652L3.82715 3.15723H16.6689L16.6748 3.16016C16.6761 3.16146 16.6765 3.16323 16.6768 3.16504L16.6758 3.16797L13.6953 8.57617C13.5459 8.83763 13.271 9.00781 12.9609 9.00781H6.26465L6.0293 9.43555L5.2832 10.7939C5.21566 10.9161 5.17868 11.0432 5.16406 11.166L5.15723 11.291L5.16211 11.3965C5.21465 11.9189 5.65375 12.3242 6.19043 12.3242H15.0107V12.3408H5.83594C5.37074 12.3408 4.99414 11.9642 4.99414 11.499C4.99419 11.3564 5.02918 11.2216 5.0957 11.0938L6.2207 9.05176L6.4248 8.68164L6.24414 8.2998L3.24805 1.97949L3.02441 1.50781H1.66113V1.49121H3.03516ZM6.5459 11.499L6.72266 11.5996V11.6006L6.54492 11.499H6.5459ZM17.3984 3.56641L16.6816 3.15625H16.6826L17.3984 3.56641Z" stroke="black" stroke-width="1.65"/>
</svg>
