<svg width="20" height="20" viewBox="0 0 20 20" fill="none" xmlns="http://www.w3.org/2000/svg">
<g clip-path="url(#clip0_5_816)">
<path d="M5.83325 15C4.91242 15 4.17492 15.7458 4.17492 16.6667C4.17492 17.5875 4.91242 18.3333 5.83325 18.3333C6.75409 18.3333 7.49992 17.5875 7.49992 16.6667C7.49992 15.7458 6.75409 15 5.83325 15ZM0.833252 1.66667V3.33333H2.49992L5.49575 9.65417L4.37075 11.6958C4.24159 11.9375 4.16659 12.2083 4.16659 12.5C4.16659 13.4208 4.91242 14.1667 5.83325 14.1667H15.8333V12.5H6.18742C6.07075 12.5 5.97909 12.4083 5.97909 12.2917C5.97909 12.2542 5.98742 12.2208 6.00409 12.1917L6.74992 10.8333H12.9583C13.5833 10.8333 14.1291 10.4875 14.4166 9.975L17.3958 4.56667C17.4624 4.45 17.4999 4.3125 17.4999 4.16667C17.4999 3.94565 17.4121 3.73369 17.2558 3.57741C17.0996 3.42113 16.8876 3.33333 16.6666 3.33333H4.34575L3.55409 1.66667H0.833252ZM14.1666 15C13.2458 15 12.5083 15.7458 12.5083 16.6667C12.5083 17.5875 13.2458 18.3333 14.1666 18.3333C15.0874 18.3333 15.8333 17.5875 15.8333 16.6667C15.8333 15.7458 15.0874 15 14.1666 15Z" fill="black"/>
</g>
<defs>
<clipPath id="clip0_5_816">
<rect width="20" height="20" fill="white"/>
</clipPath>
</defs>
</svg>
